FILE "vcd_demo.bin" BINARY
  TRACK 01 MODE2/2352
    FLAGS DCP
    INDEX 01 00:00:00
  TRACK 02 MODE2/2352
    FLAGS DCP
    INDEX 00 00:13:57
    INDEX 01 00:15:57
  TRACK 03 MODE2/2352
    FLAGS DCP
    INDEX 00 00:20:71
    INDEX 01 00:22:71
